<mxfile host="app.diagrams.net" modified="2020-11-02T17:38:17.456Z" agent="5.0 (Windows NT 6.1) AppleWebKit/537.36 (KHTML, like Gecko) Chrome/86.0.4240.111 Safari/537.36" etag="O79r3MP6x9wCWtLvYR0W" version="13.8.8" type="github">
  <diagram id="ZXrqioaMke-Y9P5PgKKp" name="Page-1">
    <mxGraphModel dx="615" dy="1463" grid="1" gridSize="9" guides="1" tooltips="1" connect="1" arrows="1" fold="1" page="1" pageScale="1" pageWidth="850" pageHeight="1100" math="0" shadow="0">
      <root>
        <mxCell id="0" />
        <mxCell id="1" parent="0" />
        <UserObject label="Início" lucidchartObjectId="3y1JagYthgjQ" id="rHKmbyzbA7fJzTo6jydG-2">
          <mxCell style="html=1;whiteSpace=wrap;;whiteSpace=wrap;fontSize=13;fontColor=#333333;spacing=7;strokeColor=#5e5e5e;strokeOpacity=100;fillOpacity=100;rounded=1;absoluteArcSize=1;arcSize=7.199999999999999;fillColor=#b2d6ef;strokeWidth=2;" parent="1" vertex="1" zOrder="1">
            <mxGeometry x="1341" y="-969.5" width="55" height="39" as="geometry" />
          </mxCell>
        </UserObject>
        <UserObject label="Fim" lucidchartObjectId="Pz1Jr6ghEXmA" id="rHKmbyzbA7fJzTo6jydG-3">
          <mxCell style="html=1;whiteSpace=wrap;;whiteSpace=wrap;fontSize=13;fontColor=#333333;spacing=7;strokeColor=#5e5e5e;strokeOpacity=100;fillOpacity=100;rounded=1;absoluteArcSize=1;arcSize=7.199999999999999;fillColor=#0c7cba;strokeWidth=2;" parent="1" vertex="1" zOrder="3">
            <mxGeometry x="1533.5" y="-971" width="55" height="39" as="geometry" />
          </mxCell>
        </UserObject>
        <UserObject label="Decisão" lucidchartObjectId="6a2Jw9Cx3FFG" id="rHKmbyzbA7fJzTo6jydG-4">
          <mxCell style="html=1;whiteSpace=wrap;rhombus;whiteSpace=wrap;fontSize=13;fontColor=#333333;spacing=3;strokeColor=#5e5e5e;strokeOpacity=100;fillOpacity=100;rounded=1;absoluteArcSize=1;arcSize=7.199999999999999;fillColor=#b2d6ef;strokeWidth=2;" parent="1" vertex="1" zOrder="6">
            <mxGeometry x="1431.5" y="-971" width="55" height="39" as="geometry" />
          </mxCell>
        </UserObject>
        <UserObject label="Processo" lucidchartObjectId="uc2J8VdgvthG" id="rHKmbyzbA7fJzTo6jydG-5">
          <mxCell style="html=1;whiteSpace=wrap;;whiteSpace=wrap;fontSize=13;fontColor=#333333;spacing=7;strokeColor=#5e5e5e;strokeOpacity=100;fillOpacity=100;rounded=1;absoluteArcSize=1;arcSize=7.199999999999999;fillColor=#b2d6ef;strokeWidth=2;" parent="1" vertex="1" zOrder="7">
            <mxGeometry x="1431.5" y="-1035" width="55" height="39" as="geometry" />
          </mxCell>
        </UserObject>
        <UserObject label="" lucidchartObjectId="3c2JvwjXz.9R" id="rHKmbyzbA7fJzTo6jydG-6">
          <mxCell style="html=1;jettySize=18;whiteSpace=wrap;fontSize=11;strokeColor=#5E5E5E;rounded=1;arcSize=12;edgeStyle=orthogonalEdgeStyle;startArrow=none;;endArrow=block;endFill=1;;exitX=1.016;exitY=0.5;exitPerimeter=0;entryX=0.016;entryY=0.5;entryPerimeter=0;" parent="1" target="rHKmbyzbA7fJzTo6jydG-4" edge="1">
            <mxGeometry x="536.5" y="-1035" width="100" height="100" as="geometry">
              <Array as="points" />
              <mxPoint x="1396.38" y="-951.4999999999998" as="sourcePoint" />
            </mxGeometry>
          </mxCell>
        </UserObject>
        <UserObject label="" lucidchartObjectId="qe2Jr5rrO64W" id="rHKmbyzbA7fJzTo6jydG-7">
          <mxCell style="html=1;jettySize=18;whiteSpace=wrap;fontSize=11;strokeColor=#5E5E5E;rounded=1;arcSize=12;edgeStyle=orthogonalEdgeStyle;startArrow=none;;endArrow=block;endFill=1;;exitX=1.016;exitY=0.5;exitPerimeter=0;entryX=0.5;entryY=-0.023;entryPerimeter=0;" parent="1" source="rHKmbyzbA7fJzTo6jydG-5" target="rHKmbyzbA7fJzTo6jydG-3" edge="1">
            <mxGeometry x="536.5" y="-1035" width="100" height="100" as="geometry">
              <Array as="points" />
            </mxGeometry>
          </mxCell>
        </UserObject>
        <UserObject label="" lucidchartObjectId="5e2JItHJWnhz" id="rHKmbyzbA7fJzTo6jydG-8">
          <mxCell style="html=1;jettySize=18;whiteSpace=wrap;fontSize=10;fontColor=#333333;fontStyle=1;strokeColor=#5E5E5E;rounded=1;arcSize=12;edgeStyle=orthogonalEdgeStyle;startArrow=none;;endArrow=block;endFill=1;;exitX=0.5;exitY=0.009;exitPerimeter=0;entryX=0.5;entryY=1.023;entryPerimeter=0;" parent="1" source="rHKmbyzbA7fJzTo6jydG-4" target="rHKmbyzbA7fJzTo6jydG-5" edge="1">
            <mxGeometry x="536.5" y="-1035" width="100" height="100" as="geometry">
              <Array as="points" />
            </mxGeometry>
          </mxCell>
        </UserObject>
        <mxCell id="rHKmbyzbA7fJzTo6jydG-9" value="Sim" style="text;html=1;resizable=0;labelBackgroundColor=#ffffff;align=center;verticalAlign=middle;fontStyle=1;fontColor=#333333;;fontSize=10.666666666666666;" parent="rHKmbyzbA7fJzTo6jydG-8" vertex="1">
          <mxGeometry relative="1" as="geometry" />
        </mxCell>
        <UserObject label="" lucidchartObjectId="8e2J8c8t25hN" id="rHKmbyzbA7fJzTo6jydG-10">
          <mxCell style="html=1;jettySize=18;whiteSpace=wrap;fontSize=10;fontColor=#333333;fontStyle=1;strokeColor=#5E5E5E;rounded=1;arcSize=12;edgeStyle=orthogonalEdgeStyle;startArrow=none;;endArrow=block;endFill=1;;exitX=0.5;exitY=0.991;exitPerimeter=0;" parent="1" source="rHKmbyzbA7fJzTo6jydG-4" edge="1">
            <mxGeometry x="536.5" y="-1035" width="100" height="100" as="geometry">
              <Array as="points" />
              <mxPoint x="1458.5" y="-907" as="targetPoint" />
            </mxGeometry>
          </mxCell>
        </UserObject>
        <mxCell id="rHKmbyzbA7fJzTo6jydG-11" value="NÃO" style="text;html=1;resizable=0;labelBackgroundColor=#ffffff;align=center;verticalAlign=middle;fontStyle=1;fontColor=#333333;;fontSize=10.666666666666666;" parent="rHKmbyzbA7fJzTo6jydG-10" vertex="1">
          <mxGeometry x="-0.30428022841943203" relative="1" as="geometry" />
        </mxCell>
        <UserObject label="FRETISTA BAIXA APP" lucidchartObjectId="s.uKQylt4AR4" id="rHKmbyzbA7fJzTo6jydG-12">
          <mxCell style="html=1;whiteSpace=wrap;;whiteSpace=wrap;fontSize=6;fontColor=#333333;fontStyle=1;spacing=7;strokeColor=#5e5e5e;strokeOpacity=100;fillOpacity=72;rounded=1;absoluteArcSize=1;arcSize=7.199999999999999;fillColor=#c92d39;strokeWidth=1;spacingLeft=0;glass=0;perimeterSpacing=0;" parent="1" vertex="1" zOrder="16">
            <mxGeometry x="36" y="-1044" width="110" height="60" as="geometry" />
          </mxCell>
        </UserObject>
        <UserObject label="" lucidchartObjectId="H~uKZxMVsytJ" id="rHKmbyzbA7fJzTo6jydG-13">
          <mxCell style="html=1;jettySize=18;whiteSpace=wrap;fontSize=6;strokeColor=#5E5E5E;strokeWidth=1;rounded=1;arcSize=12;edgeStyle=orthogonalEdgeStyle;startArrow=none;;endArrow=block;endFill=1;;exitX=1.015;exitY=0.5;exitPerimeter=0;entryX=-0.015;entryY=0.5;entryPerimeter=0;spacingLeft=0;" parent="1" source="rHKmbyzbA7fJzTo6jydG-12" target="rHKmbyzbA7fJzTo6jydG-14" edge="1">
            <mxGeometry x="22" y="-1041" width="100" height="100" as="geometry">
              <Array as="points" />
            </mxGeometry>
          </mxCell>
        </UserObject>
        <UserObject label="CADASTRO DO FRETISTA" lucidchartObjectId="O~uKVIkj0mk8" id="rHKmbyzbA7fJzTo6jydG-14">
          <mxCell style="html=1;whiteSpace=wrap;;whiteSpace=wrap;fontSize=6;fontColor=#333333;fontStyle=1;spacing=7;strokeColor=#5e5e5e;strokeOpacity=100;fillOpacity=72;rounded=1;absoluteArcSize=1;arcSize=7.199999999999999;fillColor=#c92d39;strokeWidth=1;spacingLeft=0;" parent="1" vertex="1" zOrder="18">
            <mxGeometry x="186" y="-1044" width="110" height="60" as="geometry" />
          </mxCell>
        </UserObject>
        <UserObject label="CADASTRO  CNH EAR*" lucidchartObjectId="navKEohJb9zn" id="rHKmbyzbA7fJzTo6jydG-15">
          <mxCell style="html=1;whiteSpace=wrap;;whiteSpace=wrap;fontSize=6;fontColor=#333333;fontStyle=1;spacing=7;strokeColor=#5e5e5e;strokeOpacity=100;fillOpacity=72;rounded=1;absoluteArcSize=1;arcSize=7.199999999999999;fillColor=#c92d39;strokeWidth=1;spacingLeft=0;" parent="1" vertex="1" zOrder="19">
            <mxGeometry x="486" y="-1044" width="110" height="60" as="geometry" />
          </mxCell>
        </UserObject>
        <UserObject label="" lucidchartObjectId="uavKRuDH9f49" id="rHKmbyzbA7fJzTo6jydG-17">
          <mxCell style="html=1;jettySize=18;whiteSpace=wrap;fontSize=6;strokeColor=#5E5E5E;strokeWidth=1;rounded=1;arcSize=12;edgeStyle=orthogonalEdgeStyle;startArrow=none;;endArrow=block;endFill=1;;exitX=1.015;exitY=0.5;exitPerimeter=0;entryX=-0.015;entryY=0.5;entryPerimeter=0;spacingLeft=0;" parent="1" source="rHKmbyzbA7fJzTo6jydG-14" target="rHKmbyzbA7fJzTo6jydG-24" edge="1">
            <mxGeometry x="22" y="-1041" width="100" height="100" as="geometry">
              <Array as="points" />
            </mxGeometry>
          </mxCell>
        </UserObject>
        <UserObject label="" lucidchartObjectId="1evKYmKw-Scp" id="rHKmbyzbA7fJzTo6jydG-18">
          <mxCell style="html=1;jettySize=18;whiteSpace=wrap;fontSize=6;strokeColor=#5E5E5E;strokeWidth=1;rounded=1;arcSize=12;edgeStyle=orthogonalEdgeStyle;startArrow=none;;endArrow=block;endFill=1;;exitX=1.015;exitY=0.5;exitPerimeter=0;entryX=-0.015;entryY=0.5;entryPerimeter=0;spacingLeft=0;" parent="1" source="rHKmbyzbA7fJzTo6jydG-14" target="rHKmbyzbA7fJzTo6jydG-24" edge="1">
            <mxGeometry x="22" y="-1041" width="100" height="100" as="geometry">
              <Array as="points" />
            </mxGeometry>
          </mxCell>
        </UserObject>
        <UserObject label="" lucidchartObjectId="9evK0Tb6jr8o" id="rHKmbyzbA7fJzTo6jydG-19">
          <mxCell style="html=1;jettySize=18;whiteSpace=wrap;fontSize=6;strokeColor=#5E5E5E;strokeWidth=1;rounded=1;arcSize=12;edgeStyle=orthogonalEdgeStyle;startArrow=none;;endArrow=block;endFill=1;;exitX=1.015;exitY=0.5;exitPerimeter=0;spacingLeft=0;" parent="1" source="rHKmbyzbA7fJzTo6jydG-15" target="rHKmbyzbA7fJzTo6jydG-49" edge="1">
            <mxGeometry x="22" y="-1041" width="100" height="100" as="geometry">
              <Array as="points" />
              <mxPoint x="567" y="-1015" as="targetPoint" />
            </mxGeometry>
          </mxCell>
        </UserObject>
        <UserObject label="" lucidchartObjectId="_fvKJu_CuCEC" id="rHKmbyzbA7fJzTo6jydG-22">
          <mxCell style="html=1;jettySize=18;whiteSpace=wrap;fontSize=6;strokeColor=#5E5E5E;strokeWidth=1;rounded=1;arcSize=12;edgeStyle=orthogonalEdgeStyle;startArrow=none;;endArrow=block;endFill=1;;entryX=-0.015;entryY=0.5;entryPerimeter=0;spacingLeft=0;exitX=1;exitY=0.5;exitDx=0;exitDy=0;" parent="1" source="rHKmbyzbA7fJzTo6jydG-21" target="rHKmbyzbA7fJzTo6jydG-23" edge="1">
            <mxGeometry x="22" y="-1041" width="100" height="100" as="geometry">
              <Array as="points" />
              <mxPoint x="891" y="-1014" as="sourcePoint" />
            </mxGeometry>
          </mxCell>
        </UserObject>
        <UserObject label="FRETISTA APROVADO" lucidchartObjectId="egvKg269H9v_" id="rHKmbyzbA7fJzTo6jydG-23">
          <mxCell style="html=1;whiteSpace=wrap;;whiteSpace=wrap;fontSize=6;fontColor=#333333;fontStyle=1;spacing=7;strokeColor=#5e5e5e;strokeOpacity=100;fillOpacity=72;rounded=1;absoluteArcSize=1;arcSize=7.199999999999999;fillColor=#c92d39;strokeWidth=1;spacingLeft=0;" parent="1" vertex="1" zOrder="25">
            <mxGeometry x="936" y="-1044" width="110" height="60" as="geometry" />
          </mxCell>
        </UserObject>
        <mxCell id="2FagUGivekg9gJh4EhXs-11" style="edgeStyle=orthogonalEdgeStyle;rounded=0;orthogonalLoop=1;jettySize=auto;html=1;exitX=1;exitY=0.5;exitDx=0;exitDy=0;strokeWidth=1;fontSize=3;" edge="1" parent="1" source="rHKmbyzbA7fJzTo6jydG-24">
          <mxGeometry relative="1" as="geometry">
            <mxPoint x="490" y="-1014" as="targetPoint" />
          </mxGeometry>
        </mxCell>
        <UserObject label="ANTECEDEN- TES CRIMINAIS" lucidchartObjectId="_vvKhey.0Mgs" id="rHKmbyzbA7fJzTo6jydG-24">
          <mxCell style="html=1;whiteSpace=wrap;;whiteSpace=wrap;fontSize=6;fontColor=#333333;fontStyle=1;spacing=7;strokeColor=#5e5e5e;strokeOpacity=100;fillOpacity=72;rounded=1;absoluteArcSize=1;arcSize=7.199999999999999;fillColor=#c92d39;strokeWidth=1;spacingLeft=0;" parent="1" vertex="1" zOrder="29">
            <mxGeometry x="336" y="-1044" width="110" height="60" as="geometry" />
          </mxCell>
        </UserObject>
        <UserObject label="CADASTRO DO VEÍCULO" lucidchartObjectId="J3vKeXsbpCR4" id="rHKmbyzbA7fJzTo6jydG-25">
          <mxCell style="html=1;whiteSpace=wrap;;whiteSpace=wrap;fontSize=6;fontColor=#333333;fontStyle=1;spacing=7;strokeColor=#5e5e5e;strokeOpacity=100;fillOpacity=72;rounded=1;absoluteArcSize=1;arcSize=7.199999999999999;fillColor=#c92d39;strokeWidth=1;spacingLeft=0;" parent="1" vertex="1" zOrder="30">
            <mxGeometry x="186" y="-927" width="110" height="60" as="geometry" />
          </mxCell>
        </UserObject>
        <mxCell id="2FagUGivekg9gJh4EhXs-21" style="edgeStyle=orthogonalEdgeStyle;rounded=0;orthogonalLoop=1;jettySize=auto;html=1;exitX=1;exitY=0.5;exitDx=0;exitDy=0;entryX=0;entryY=0.5;entryDx=0;entryDy=0;strokeWidth=1;fontSize=3;" edge="1" parent="1" source="rHKmbyzbA7fJzTo6jydG-26" target="rHKmbyzbA7fJzTo6jydG-28">
          <mxGeometry relative="1" as="geometry" />
        </mxCell>
        <UserObject label="DIMENSÕES DO VEÍCULO " lucidchartObjectId="85vKEyoe3eA9" id="rHKmbyzbA7fJzTo6jydG-26">
          <mxCell style="html=1;whiteSpace=wrap;;whiteSpace=wrap;fontSize=6;fontColor=#333333;fontStyle=1;spacing=7;strokeColor=#5e5e5e;strokeOpacity=100;fillOpacity=72;rounded=1;absoluteArcSize=1;arcSize=7.199999999999999;fillColor=#c92d39;strokeWidth=1;spacingLeft=0;" parent="1" vertex="1" zOrder="32">
            <mxGeometry x="336" y="-927" width="110" height="60" as="geometry" />
          </mxCell>
        </UserObject>
        <UserObject label="" lucidchartObjectId="x6vKTH67jBZc" id="rHKmbyzbA7fJzTo6jydG-27">
          <mxCell style="html=1;jettySize=18;whiteSpace=wrap;fontSize=6;strokeColor=#5E5E5E;strokeWidth=1;rounded=1;arcSize=12;edgeStyle=orthogonalEdgeStyle;startArrow=none;;endArrow=block;endFill=1;;exitX=1.015;exitY=0.5;exitPerimeter=0;entryX=-0.015;entryY=0.5;entryPerimeter=0;spacingLeft=0;" parent="1" source="rHKmbyzbA7fJzTo6jydG-25" target="rHKmbyzbA7fJzTo6jydG-26" edge="1">
            <mxGeometry x="22" y="-1024" width="100" height="100" as="geometry">
              <Array as="points" />
            </mxGeometry>
          </mxCell>
        </UserObject>
        <UserObject label="" lucidchartObjectId="RkwKlg2rD4S-" id="rHKmbyzbA7fJzTo6jydG-31">
          <mxCell style="html=1;jettySize=18;whiteSpace=wrap;fontSize=6;strokeColor=#5E5E5E;strokeWidth=1;rounded=1;arcSize=12;edgeStyle=orthogonalEdgeStyle;startArrow=none;;endArrow=block;endFill=1;;entryX=-0.015;entryY=0.5;entryPerimeter=0;spacingLeft=0;" parent="1" edge="1" source="rHKmbyzbA7fJzTo6jydG-28">
            <mxGeometry x="22" y="-1024" width="100" height="100" as="geometry">
              <Array as="points" />
              <mxPoint x="381" y="-927" as="sourcePoint" />
              <mxPoint x="634.3499999999999" y="-897" as="targetPoint" />
            </mxGeometry>
          </mxCell>
        </UserObject>
        <UserObject label="VEÍCULO APROVADO" lucidchartObjectId="plwK9rW.XIJ7" id="rHKmbyzbA7fJzTo6jydG-32">
          <mxCell style="html=1;whiteSpace=wrap;;whiteSpace=wrap;fontSize=6;fontColor=#333333;fontStyle=1;spacing=7;strokeColor=#5e5e5e;strokeOpacity=100;fillOpacity=72;rounded=1;absoluteArcSize=1;arcSize=7.199999999999999;fillColor=#c92d39;strokeWidth=1;spacingLeft=0;" parent="1" vertex="1" zOrder="38">
            <mxGeometry x="636" y="-927" width="110" height="60" as="geometry" />
          </mxCell>
        </UserObject>
        <UserObject label="" lucidchartObjectId="unwKb_blqr~a" id="rHKmbyzbA7fJzTo6jydG-34">
          <mxCell style="html=1;jettySize=18;whiteSpace=wrap;fontSize=6;strokeColor=#5E5E5E;strokeWidth=1;rounded=1;arcSize=12;edgeStyle=orthogonalEdgeStyle;startArrow=none;;endArrow=block;endFill=1;;entryX=-0.015;entryY=0.5;entryPerimeter=0;spacingLeft=0;" parent="1" target="rHKmbyzbA7fJzTo6jydG-25" edge="1">
            <mxGeometry x="22" y="-1041" width="100" height="100" as="geometry">
              <Array as="points">
                <mxPoint x="156" y="-960" />
                <mxPoint x="156" y="-960" />
              </Array>
              <mxPoint x="156" y="-1014" as="sourcePoint" />
            </mxGeometry>
          </mxCell>
        </UserObject>
        <mxCell id="2FagUGivekg9gJh4EhXs-15" style="edgeStyle=orthogonalEdgeStyle;rounded=0;orthogonalLoop=1;jettySize=auto;html=1;exitX=1;exitY=0.5;exitDx=0;exitDy=0;entryX=0;entryY=0.5;entryDx=0;entryDy=0;strokeWidth=1;fontSize=3;fillColor=#C92D39;" edge="1" parent="1" source="rHKmbyzbA7fJzTo6jydG-36" target="rHKmbyzbA7fJzTo6jydG-37">
          <mxGeometry relative="1" as="geometry" />
        </mxCell>
        <UserObject label="CLIENTE BAIXA APP" lucidchartObjectId="qwwKvEui36Ie" id="rHKmbyzbA7fJzTo6jydG-36">
          <mxCell style="html=1;whiteSpace=wrap;;whiteSpace=wrap;fontSize=7;fontColor=#333333;fontStyle=1;spacing=7;strokeColor=#5e5e5e;strokeOpacity=100;fillOpacity=72;rounded=1;absoluteArcSize=1;arcSize=7.199999999999999;fillColor=#C92D39;strokeWidth=2;" parent="1" vertex="1" zOrder="42">
            <mxGeometry x="36" y="-756" width="110" height="60" as="geometry" />
          </mxCell>
        </UserObject>
        <mxCell id="2FagUGivekg9gJh4EhXs-31" style="edgeStyle=entityRelationEdgeStyle;rounded=0;orthogonalLoop=1;jettySize=auto;html=1;exitX=1;exitY=0.5;exitDx=0;exitDy=0;entryX=0;entryY=0.5;entryDx=0;entryDy=0;strokeWidth=1;fontSize=3;fillColor=#C92D39;" edge="1" parent="1" source="rHKmbyzbA7fJzTo6jydG-37" target="rHKmbyzbA7fJzTo6jydG-39">
          <mxGeometry relative="1" as="geometry" />
        </mxCell>
        <UserObject label="CADASTRO DO CLIENTE" lucidchartObjectId="_xwKCs6uE0Kd" id="rHKmbyzbA7fJzTo6jydG-37">
          <mxCell style="html=1;whiteSpace=wrap;;whiteSpace=wrap;fontSize=7;fontColor=#333333;fontStyle=1;spacing=7;strokeColor=#5e5e5e;strokeOpacity=100;fillOpacity=72;rounded=1;absoluteArcSize=1;arcSize=7.199999999999999;fillColor=#C92D39;strokeWidth=2;" parent="1" vertex="1" zOrder="43">
            <mxGeometry x="186" y="-756" width="110" height="60" as="geometry" />
          </mxCell>
        </UserObject>
        <UserObject label="PESSOA FÍSICA" lucidchartObjectId="wFwKYs23ZUC." id="rHKmbyzbA7fJzTo6jydG-39">
          <mxCell style="html=1;whiteSpace=wrap;;whiteSpace=wrap;fontSize=7;fontColor=#333333;fontStyle=1;spacing=7;strokeColor=#5e5e5e;strokeOpacity=100;fillOpacity=72;rounded=1;absoluteArcSize=1;arcSize=7.199999999999999;fillColor=#C92D39;strokeWidth=2;" parent="1" vertex="1" zOrder="45">
            <mxGeometry x="336" y="-756" width="110" height="60" as="geometry" />
          </mxCell>
        </UserObject>
        <UserObject label="PESSOA JURÍDICA" lucidchartObjectId="mGwK18Nxyq3v" id="rHKmbyzbA7fJzTo6jydG-41">
          <mxCell style="html=1;whiteSpace=wrap;;whiteSpace=wrap;fontSize=7;fontColor=#333333;fontStyle=1;spacing=7;strokeColor=#5e5e5e;strokeOpacity=100;fillOpacity=72;rounded=1;absoluteArcSize=1;arcSize=7.199999999999999;fillColor=#C92D39;strokeWidth=2;" parent="1" vertex="1" zOrder="47">
            <mxGeometry x="336" y="-639" width="110" height="60" as="geometry" />
          </mxCell>
        </UserObject>
        <UserObject label="CADASTRO DA EMPRESA" lucidchartObjectId="1IwKV0UA8O5d" id="rHKmbyzbA7fJzTo6jydG-43">
          <mxCell style="html=1;whiteSpace=wrap;;whiteSpace=wrap;fontSize=10;fontColor=#333333;fontStyle=1;spacing=7;strokeColor=#5e5e5e;strokeOpacity=100;fillOpacity=72;rounded=1;absoluteArcSize=1;arcSize=7.199999999999999;strokeWidth=2;perimeterSpacing=0;fillColor=#99FF99;" parent="1" vertex="1" zOrder="49">
            <mxGeometry x="486" y="-639" width="110" height="60" as="geometry" />
          </mxCell>
        </UserObject>
        <UserObject label="" lucidchartObjectId="1IwKH~U234kT" id="rHKmbyzbA7fJzTo6jydG-44">
          <mxCell style="html=1;jettySize=18;whiteSpace=wrap;fontSize=11;strokeColor=#5E5E5E;strokeWidth=2;rounded=1;arcSize=12;edgeStyle=orthogonalEdgeStyle;startArrow=none;;endArrow=block;endFill=1;;exitX=1.015;exitY=0.5;exitPerimeter=0;entryX=-0.015;entryY=0.5;entryPerimeter=0;fillColor=#C92D39;" parent="1" source="rHKmbyzbA7fJzTo6jydG-41" edge="1">
            <mxGeometry x="13" y="-854" width="100" height="100" as="geometry">
              <Array as="points" />
              <mxPoint x="484.35000000000014" y="-609" as="targetPoint" />
            </mxGeometry>
          </mxCell>
        </UserObject>
        <mxCell id="2FagUGivekg9gJh4EhXs-17" style="edgeStyle=orthogonalEdgeStyle;rounded=0;orthogonalLoop=1;jettySize=auto;html=1;exitX=1;exitY=0.5;exitDx=0;exitDy=0;entryX=0;entryY=0.5;entryDx=0;entryDy=0;strokeWidth=1;fontSize=3;fillColor=#C92D39;" edge="1" parent="1" source="rHKmbyzbA7fJzTo6jydG-46" target="rHKmbyzbA7fJzTo6jydG-50">
          <mxGeometry relative="1" as="geometry" />
        </mxCell>
        <mxCell id="2FagUGivekg9gJh4EhXs-58" value="" style="edgeStyle=orthogonalEdgeStyle;curved=1;rounded=0;orthogonalLoop=1;jettySize=auto;html=1;strokeWidth=1;fillColor=#FFFFFF;fontSize=3;" edge="1" parent="1" source="rHKmbyzbA7fJzTo6jydG-46" target="rHKmbyzbA7fJzTo6jydG-28">
          <mxGeometry relative="1" as="geometry" />
        </mxCell>
        <UserObject label="CADASTRO CONTATO" lucidchartObjectId="MMwKKoUnffHt" id="rHKmbyzbA7fJzTo6jydG-46">
          <mxCell style="html=1;whiteSpace=wrap;;whiteSpace=wrap;fontSize=7;fontColor=#333333;fontStyle=1;spacing=7;strokeColor=#5e5e5e;strokeOpacity=100;fillOpacity=72;rounded=1;absoluteArcSize=1;arcSize=7.199999999999999;fillColor=#C92D39;strokeWidth=2;" parent="1" vertex="1" zOrder="52">
            <mxGeometry x="486" y="-756" width="110" height="60" as="geometry" />
          </mxCell>
        </UserObject>
        <UserObject label="" lucidchartObjectId="MMwKE6pkbWgI" id="rHKmbyzbA7fJzTo6jydG-47">
          <mxCell style="html=1;jettySize=18;whiteSpace=wrap;fontSize=11;strokeColor=#5E5E5E;strokeWidth=2;rounded=1;arcSize=12;edgeStyle=orthogonalEdgeStyle;startArrow=none;;endArrow=block;endFill=1;;exitX=1.015;exitY=0.5;exitPerimeter=0;entryX=-0.015;entryY=0.5;entryPerimeter=0;fillColor=#C92D39;" parent="1" source="rHKmbyzbA7fJzTo6jydG-39" edge="1">
            <mxGeometry x="13" y="-871" width="100" height="100" as="geometry">
              <Array as="points" />
              <mxPoint x="484.35000000000014" y="-726" as="targetPoint" />
            </mxGeometry>
          </mxCell>
        </UserObject>
        <UserObject label="" lucidchartObjectId="hRwK4t-USFdU" id="rHKmbyzbA7fJzTo6jydG-48">
          <mxCell style="html=1;jettySize=18;whiteSpace=wrap;fontSize=11;strokeColor=#5E5E5E;rounded=1;arcSize=12;edgeStyle=orthogonalEdgeStyle;startArrow=none;;endArrow=block;endFill=1;;entryX=0.5;entryY=1.023;entryPerimeter=0;" parent="1" edge="1">
            <mxGeometry x="536.5" y="-1035" width="100" height="100" as="geometry">
              <Array as="points" />
              <mxPoint x="1458.5" y="-907" as="sourcePoint" />
              <mxPoint x="1368" y="-931.1029999999998" as="targetPoint" />
            </mxGeometry>
          </mxCell>
        </UserObject>
        <mxCell id="2FagUGivekg9gJh4EhXs-12" style="edgeStyle=orthogonalEdgeStyle;rounded=0;orthogonalLoop=1;jettySize=auto;html=1;exitX=1;exitY=0.5;exitDx=0;exitDy=0;entryX=0;entryY=0.5;entryDx=0;entryDy=0;strokeWidth=1;fontSize=3;" edge="1" parent="1" source="rHKmbyzbA7fJzTo6jydG-49" target="rHKmbyzbA7fJzTo6jydG-21">
          <mxGeometry relative="1" as="geometry" />
        </mxCell>
        <UserObject label="VALIDAÇÃO CNH EAR" lucidchartObjectId="yTwKNZ11kSDv" id="rHKmbyzbA7fJzTo6jydG-49">
          <mxCell style="html=1;whiteSpace=wrap;;whiteSpace=wrap;fontSize=6;fontColor=#333333;fontStyle=1;spacing=7;strokeColor=#5e5e5e;strokeOpacity=100;fillOpacity=72;rounded=1;absoluteArcSize=1;arcSize=7.199999999999999;fillColor=#c92d39;strokeWidth=1;spacingLeft=0;" parent="1" vertex="1" zOrder="55">
            <mxGeometry x="636" y="-1044" width="110" height="60" as="geometry" />
          </mxCell>
        </UserObject>
        <mxCell id="2FagUGivekg9gJh4EhXs-18" style="edgeStyle=orthogonalEdgeStyle;rounded=0;orthogonalLoop=1;jettySize=auto;html=1;exitX=1;exitY=0.5;exitDx=0;exitDy=0;entryX=0;entryY=0.5;entryDx=0;entryDy=0;strokeWidth=1;fontSize=3;fillColor=#C92D39;" edge="1" parent="1" source="rHKmbyzbA7fJzTo6jydG-50" target="rHKmbyzbA7fJzTo6jydG-52">
          <mxGeometry relative="1" as="geometry" />
        </mxCell>
        <UserObject label="VALIDAÇÃO CLIENTE " lucidchartObjectId="BZwKjjh-pMPV" id="rHKmbyzbA7fJzTo6jydG-50">
          <mxCell style="html=1;whiteSpace=wrap;;whiteSpace=wrap;fontSize=7;fontColor=#333333;fontStyle=1;spacing=7;strokeColor=#5e5e5e;strokeOpacity=100;fillOpacity=72;rounded=1;absoluteArcSize=1;arcSize=7.199999999999999;fillColor=#C92D39;strokeWidth=2;" parent="1" vertex="1" zOrder="56">
            <mxGeometry x="636" y="-756" width="110" height="60" as="geometry" />
          </mxCell>
        </UserObject>
        <UserObject label="CLIENTE LIBERADO" lucidchartObjectId="N0wKYOwpYnif" id="rHKmbyzbA7fJzTo6jydG-52">
          <mxCell style="html=1;whiteSpace=wrap;;whiteSpace=wrap;fontSize=7;fontColor=#333333;fontStyle=1;spacing=7;strokeColor=#5e5e5e;strokeOpacity=100;fillOpacity=72;rounded=1;absoluteArcSize=1;arcSize=7.199999999999999;strokeWidth=2;fillColor=#C92D39;" parent="1" vertex="1" zOrder="58">
            <mxGeometry x="786" y="-756" width="110" height="60" as="geometry" />
          </mxCell>
        </UserObject>
        <mxCell id="2FagUGivekg9gJh4EhXs-19" style="edgeStyle=orthogonalEdgeStyle;rounded=0;orthogonalLoop=1;jettySize=auto;html=1;exitX=1;exitY=0.5;exitDx=0;exitDy=0;entryX=0;entryY=0.5;entryDx=0;entryDy=0;strokeWidth=1;fontSize=3;fillColor=#C92D39;" edge="1" parent="1" source="rHKmbyzbA7fJzTo6jydG-54" target="rHKmbyzbA7fJzTo6jydG-56">
          <mxGeometry relative="1" as="geometry" />
        </mxCell>
        <UserObject label="FRETISTA ABRE O APP" lucidchartObjectId="d~wKO_Ew.pH2" id="rHKmbyzbA7fJzTo6jydG-54">
          <mxCell style="html=1;whiteSpace=wrap;;whiteSpace=wrap;fontSize=7;fontColor=#333333;fontStyle=1;spacing=7;strokeColor=#5e5e5e;strokeOpacity=100;fillOpacity=72;rounded=1;absoluteArcSize=1;arcSize=7.199999999999999;fillColor=#C92D39;strokeWidth=2;" parent="1" vertex="1" zOrder="61">
            <mxGeometry x="36" y="-504" width="110" height="60" as="geometry" />
          </mxCell>
        </UserObject>
        <mxCell id="2FagUGivekg9gJh4EhXs-30" style="edgeStyle=orthogonalEdgeStyle;rounded=0;orthogonalLoop=1;jettySize=auto;html=1;exitX=1;exitY=0.5;exitDx=0;exitDy=0;entryX=0;entryY=0.5;entryDx=0;entryDy=0;strokeWidth=1;fontSize=3;fillColor=#C92D39;" edge="1" parent="1" source="rHKmbyzbA7fJzTo6jydG-56" target="2FagUGivekg9gJh4EhXs-27">
          <mxGeometry relative="1" as="geometry" />
        </mxCell>
        <UserObject label="DESEJA RODAR?" lucidchartObjectId="5~wK7thumvDX" id="rHKmbyzbA7fJzTo6jydG-56">
          <mxCell style="html=1;whiteSpace=wrap;;whiteSpace=wrap;fontSize=7;fontColor=#333333;fontStyle=1;spacing=7;strokeColor=#5e5e5e;strokeOpacity=100;fillOpacity=72;rounded=1;absoluteArcSize=1;arcSize=7.199999999999999;fillColor=#C92D39;strokeWidth=2;" parent="1" vertex="1" zOrder="64">
            <mxGeometry x="186" y="-504" width="110" height="60" as="geometry" />
          </mxCell>
        </UserObject>
        <UserObject label="LIBERAÇÃO DE MOTORISTA" lucidchartObjectId="ifvKUUaz.t~0" id="rHKmbyzbA7fJzTo6jydG-21">
          <mxCell style="html=1;whiteSpace=wrap;;whiteSpace=wrap;fontSize=6;fontColor=#333333;fontStyle=1;spacing=7;strokeColor=#5e5e5e;strokeOpacity=100;fillOpacity=72;rounded=1;absoluteArcSize=1;arcSize=7.199999999999999;fillColor=#c92d39;strokeWidth=1;spacingLeft=0;" parent="1" vertex="1" zOrder="23">
            <mxGeometry x="786" y="-1044" width="110" height="60" as="geometry" />
          </mxCell>
        </UserObject>
        <UserObject label="" lucidchartObjectId="xrwK2oMvdTFK" id="2FagUGivekg9gJh4EhXs-3">
          <mxCell style="html=1;jettySize=18;whiteSpace=wrap;fontSize=6;strokeColor=#5E5E5E;strokeWidth=1;rounded=1;arcSize=12;edgeStyle=orthogonalEdgeStyle;startArrow=none;;endArrow=block;endFill=1;;exitX=1.015;exitY=0.511;exitPerimeter=0;spacingLeft=0;" edge="1" parent="1" source="rHKmbyzbA7fJzTo6jydG-32">
            <mxGeometry x="22" y="-1041" width="100" height="100" as="geometry">
              <Array as="points">
                <mxPoint x="913" y="-896" />
              </Array>
              <mxPoint x="913" y="-1014" as="targetPoint" />
              <mxPoint x="636.8699999999999" y="-943.538" as="sourcePoint" />
            </mxGeometry>
          </mxCell>
        </UserObject>
        <UserObject label="VALIDAÇÃO DO VEÍCULO" lucidchartObjectId="k7vKkOwz.Rf9" id="rHKmbyzbA7fJzTo6jydG-28">
          <mxCell style="html=1;whiteSpace=wrap;;whiteSpace=wrap;fontSize=6;fontColor=#333333;fontStyle=1;spacing=7;strokeColor=#5e5e5e;strokeOpacity=100;fillOpacity=72;rounded=1;absoluteArcSize=1;arcSize=7.199999999999999;fillColor=#c92d39;strokeWidth=1;spacingLeft=0;" parent="1" vertex="1" zOrder="34">
            <mxGeometry x="486" y="-927" width="110" height="60.5" as="geometry" />
          </mxCell>
        </UserObject>
        <UserObject label="" lucidchartObjectId="unwKb_blqr~a" id="2FagUGivekg9gJh4EhXs-22">
          <mxCell style="html=1;jettySize=18;whiteSpace=wrap;fontSize=6;strokeColor=#5E5E5E;strokeWidth=1;rounded=1;arcSize=12;edgeStyle=orthogonalEdgeStyle;startArrow=none;;endArrow=block;endFill=1;;entryX=-0.015;entryY=0.5;entryPerimeter=0;spacingLeft=0;fillColor=#C92D39;" edge="1" parent="1">
            <mxGeometry x="173.65" y="-756" width="100" height="100" as="geometry">
              <Array as="points">
                <mxPoint x="312" y="-612" />
              </Array>
              <mxPoint x="312" y="-725" as="sourcePoint" />
              <mxPoint x="335" y="-612" as="targetPoint" />
            </mxGeometry>
          </mxCell>
        </UserObject>
        <mxCell id="2FagUGivekg9gJh4EhXs-26" style="edgeStyle=orthogonalEdgeStyle;rounded=0;orthogonalLoop=1;jettySize=auto;html=1;exitX=1;exitY=0.5;exitDx=0;exitDy=0;entryX=0;entryY=0.5;entryDx=0;entryDy=0;strokeWidth=1;fontSize=3;fillColor=#C92D39;" edge="1" parent="1" source="2FagUGivekg9gJh4EhXs-27" target="2FagUGivekg9gJh4EhXs-28">
          <mxGeometry relative="1" as="geometry" />
        </mxCell>
        <UserObject label="CARRO ABASTE-CIDO?" lucidchartObjectId="d~wKO_Ew.pH2" id="2FagUGivekg9gJh4EhXs-27">
          <mxCell style="html=1;whiteSpace=wrap;;whiteSpace=wrap;fontSize=7;fontColor=#333333;fontStyle=1;spacing=7;strokeColor=#5e5e5e;strokeOpacity=100;fillOpacity=72;rounded=1;absoluteArcSize=1;arcSize=7.199999999999999;fillColor=#99FF99;strokeWidth=2;" vertex="1" zOrder="61" parent="1">
            <mxGeometry x="336" y="-504" width="110" height="60" as="geometry" />
          </mxCell>
        </UserObject>
        <UserObject label="DOCUMEN-TOS ?" lucidchartObjectId="5~wK7thumvDX" id="2FagUGivekg9gJh4EhXs-28">
          <mxCell style="html=1;whiteSpace=wrap;;whiteSpace=wrap;fontSize=7;fontColor=#333333;fontStyle=1;spacing=7;strokeColor=#5e5e5e;strokeOpacity=100;fillOpacity=72;rounded=1;absoluteArcSize=1;arcSize=7.199999999999999;fillColor=#99FF99;strokeWidth=2;align=center;" vertex="1" zOrder="64" parent="1">
            <mxGeometry x="486" y="-504" width="110" height="60" as="geometry" />
          </mxCell>
        </UserObject>
        <mxCell id="2FagUGivekg9gJh4EhXs-39" style="edgeStyle=orthogonalEdgeStyle;rounded=0;orthogonalLoop=1;jettySize=auto;html=1;exitX=1;exitY=0.5;exitDx=0;exitDy=0;entryX=0;entryY=0.5;entryDx=0;entryDy=0;strokeWidth=1;fontSize=3;fillColor=#C92D39;" edge="1" parent="1" source="2FagUGivekg9gJh4EhXs-40" target="2FagUGivekg9gJh4EhXs-42">
          <mxGeometry relative="1" as="geometry" />
        </mxCell>
        <UserObject label="CLIENTE ABRE O APP" lucidchartObjectId="d~wKO_Ew.pH2" id="2FagUGivekg9gJh4EhXs-40">
          <mxCell style="html=1;whiteSpace=wrap;;whiteSpace=wrap;fontSize=7;fontColor=#333333;fontStyle=1;spacing=7;strokeColor=#5e5e5e;strokeOpacity=100;fillOpacity=72;rounded=1;absoluteArcSize=1;arcSize=7.199999999999999;fillColor=#C92D39;strokeWidth=2;" vertex="1" zOrder="61" parent="1">
            <mxGeometry x="36" y="-288" width="110" height="60" as="geometry" />
          </mxCell>
        </UserObject>
        <mxCell id="2FagUGivekg9gJh4EhXs-41" style="edgeStyle=orthogonalEdgeStyle;rounded=0;orthogonalLoop=1;jettySize=auto;html=1;exitX=1;exitY=0.5;exitDx=0;exitDy=0;entryX=0;entryY=0.5;entryDx=0;entryDy=0;strokeWidth=1;fontSize=3;fillColor=#C92D39;" edge="1" parent="1" source="2FagUGivekg9gJh4EhXs-42" target="2FagUGivekg9gJh4EhXs-44">
          <mxGeometry relative="1" as="geometry" />
        </mxCell>
        <UserObject label="ABRE O CATÁLOGO" lucidchartObjectId="5~wK7thumvDX" id="2FagUGivekg9gJh4EhXs-42">
          <mxCell style="html=1;whiteSpace=wrap;;whiteSpace=wrap;fontSize=7;fontColor=#333333;fontStyle=1;spacing=7;strokeColor=#5e5e5e;strokeOpacity=100;fillOpacity=72;rounded=1;absoluteArcSize=1;arcSize=7.199999999999999;fillColor=#C92D39;strokeWidth=2;" vertex="1" zOrder="64" parent="1">
            <mxGeometry x="186" y="-288" width="110" height="60" as="geometry" />
          </mxCell>
        </UserObject>
        <mxCell id="2FagUGivekg9gJh4EhXs-43" style="edgeStyle=orthogonalEdgeStyle;rounded=0;orthogonalLoop=1;jettySize=auto;html=1;exitX=1;exitY=0.5;exitDx=0;exitDy=0;entryX=0;entryY=0.5;entryDx=0;entryDy=0;strokeWidth=1;fontSize=3;fillColor=#C92D39;" edge="1" parent="1" source="2FagUGivekg9gJh4EhXs-44" target="2FagUGivekg9gJh4EhXs-45">
          <mxGeometry relative="1" as="geometry" />
        </mxCell>
        <UserObject label="DETERMINA O PRODUTO" lucidchartObjectId="d~wKO_Ew.pH2" id="2FagUGivekg9gJh4EhXs-44">
          <mxCell style="html=1;whiteSpace=wrap;;whiteSpace=wrap;fontSize=7;fontColor=#333333;fontStyle=1;spacing=7;strokeColor=#5e5e5e;strokeOpacity=100;fillOpacity=72;rounded=1;absoluteArcSize=1;arcSize=7.199999999999999;fillColor=#C92D39;strokeWidth=2;" vertex="1" zOrder="61" parent="1">
            <mxGeometry x="336" y="-288" width="110" height="60" as="geometry" />
          </mxCell>
        </UserObject>
        <UserObject label="QNTD DO PRODUTO" lucidchartObjectId="5~wK7thumvDX" id="2FagUGivekg9gJh4EhXs-45">
          <mxCell style="html=1;whiteSpace=wrap;;whiteSpace=wrap;fontSize=7;fontColor=#333333;fontStyle=1;spacing=7;strokeColor=#5e5e5e;strokeOpacity=100;fillOpacity=72;rounded=1;absoluteArcSize=1;arcSize=7.199999999999999;fillColor=#C92D39;strokeWidth=2;" vertex="1" zOrder="64" parent="1">
            <mxGeometry x="486" y="-288" width="110" height="60" as="geometry" />
          </mxCell>
        </UserObject>
        <mxCell id="2FagUGivekg9gJh4EhXs-46" style="edgeStyle=orthogonalEdgeStyle;rounded=0;orthogonalLoop=1;jettySize=auto;html=1;exitX=1;exitY=0.5;exitDx=0;exitDy=0;entryX=0;entryY=0.5;entryDx=0;entryDy=0;strokeWidth=1;fontSize=3;fillColor=#C92D39;" edge="1" parent="1" target="2FagUGivekg9gJh4EhXs-48">
          <mxGeometry relative="1" as="geometry">
            <mxPoint x="596" y="-258" as="sourcePoint" />
          </mxGeometry>
        </mxCell>
        <UserObject label="MAIS ALGUM PRODUTO?" lucidchartObjectId="d~wKO_Ew.pH2" id="2FagUGivekg9gJh4EhXs-48">
          <mxCell style="html=1;whiteSpace=wrap;;whiteSpace=wrap;fontSize=7;fontColor=#333333;fontStyle=1;spacing=7;strokeColor=#5e5e5e;strokeOpacity=100;fillOpacity=72;rounded=1;absoluteArcSize=1;arcSize=7.199999999999999;fillColor=#C92D39;strokeWidth=2;" vertex="1" zOrder="61" parent="1">
            <mxGeometry x="636" y="-288" width="110" height="60" as="geometry" />
          </mxCell>
        </UserObject>
        <mxCell id="2FagUGivekg9gJh4EhXs-50" value="&lt;b&gt;&lt;font style=&quot;font-size: 16px&quot;&gt;SIM&lt;/font&gt;&lt;/b&gt;" style="text;html=1;align=center;verticalAlign=middle;resizable=0;points=[];autosize=1;fontSize=3;fillColor=#FFFFFF;" vertex="1" parent="1">
          <mxGeometry x="675" y="-207" width="45" height="9" as="geometry" />
        </mxCell>
        <mxCell id="2FagUGivekg9gJh4EhXs-51" value="&lt;b&gt;&lt;span style=&quot;font-size: 15px&quot;&gt;NÃO&lt;/span&gt;&lt;br&gt;&lt;/b&gt;" style="text;html=1;align=center;verticalAlign=middle;resizable=0;points=[];autosize=1;fontSize=3;gradientColor=#ffffff;" vertex="1" parent="1">
          <mxGeometry x="756" y="-270" width="45" height="9" as="geometry" />
        </mxCell>
        <mxCell id="2FagUGivekg9gJh4EhXs-56" style="edgeStyle=orthogonalEdgeStyle;curved=1;rounded=0;orthogonalLoop=1;jettySize=auto;html=1;strokeWidth=1;fillColor=#C92D39;fontSize=3;entryX=0.5;entryY=1;entryDx=0;entryDy=0;exitX=0.5;exitY=1;exitDx=0;exitDy=0;" edge="1" parent="1" source="2FagUGivekg9gJh4EhXs-48" target="2FagUGivekg9gJh4EhXs-42">
          <mxGeometry relative="1" as="geometry">
            <mxPoint x="837" y="-117" as="sourcePoint" />
            <Array as="points">
              <mxPoint x="691" y="-180" />
              <mxPoint x="241" y="-180" />
            </Array>
          </mxGeometry>
        </mxCell>
        <mxCell id="2FagUGivekg9gJh4EhXs-60" style="edgeStyle=orthogonalEdgeStyle;rounded=0;orthogonalLoop=1;jettySize=auto;html=1;exitX=1;exitY=0.5;exitDx=0;exitDy=0;entryX=0;entryY=0.5;entryDx=0;entryDy=0;strokeWidth=1;fontSize=3;fillColor=#C92D39;" edge="1" parent="1" target="2FagUGivekg9gJh4EhXs-61">
          <mxGeometry relative="1" as="geometry">
            <mxPoint x="746" y="-258" as="sourcePoint" />
          </mxGeometry>
        </mxCell>
        <UserObject label="COMEÇAR A PEDIR FRETE" lucidchartObjectId="5~wK7thumvDX" id="2FagUGivekg9gJh4EhXs-61">
          <mxCell style="html=1;whiteSpace=wrap;;whiteSpace=wrap;fontSize=7;fontColor=#333333;fontStyle=1;spacing=7;strokeColor=#5e5e5e;strokeOpacity=100;fillOpacity=72;rounded=1;absoluteArcSize=1;arcSize=7.199999999999999;fillColor=#C92D39;strokeWidth=2;" vertex="1" zOrder="64" parent="1">
            <mxGeometry x="819" y="-288" width="110" height="60" as="geometry" />
          </mxCell>
        </UserObject>
        <mxCell id="2FagUGivekg9gJh4EhXs-63" style="edgeStyle=orthogonalEdgeStyle;rounded=0;orthogonalLoop=1;jettySize=auto;html=1;exitX=1;exitY=0.5;exitDx=0;exitDy=0;entryX=0;entryY=0.5;entryDx=0;entryDy=0;strokeWidth=1;fontSize=3;fillColor=#C92D39;" edge="1" parent="1" target="2FagUGivekg9gJh4EhXs-64">
          <mxGeometry relative="1" as="geometry">
            <mxPoint x="596" y="-474" as="sourcePoint" />
          </mxGeometry>
        </mxCell>
        <UserObject label="FRETISTA ONLINE" lucidchartObjectId="5~wK7thumvDX" id="2FagUGivekg9gJh4EhXs-64">
          <mxCell style="html=1;whiteSpace=wrap;;whiteSpace=wrap;fontSize=7;fontColor=#333333;fontStyle=1;spacing=7;strokeColor=#5e5e5e;strokeOpacity=100;fillOpacity=72;rounded=1;absoluteArcSize=1;arcSize=7.199999999999999;fillColor=#C92D39;strokeWidth=2;align=center;" vertex="1" zOrder="64" parent="1">
            <mxGeometry x="636" y="-504" width="110" height="60" as="geometry" />
          </mxCell>
        </UserObject>
        <mxCell id="2FagUGivekg9gJh4EhXs-65" style="edgeStyle=orthogonalEdgeStyle;rounded=0;orthogonalLoop=1;jettySize=auto;html=1;exitX=1;exitY=0.5;exitDx=0;exitDy=0;entryX=0;entryY=0.5;entryDx=0;entryDy=0;strokeWidth=1;fontSize=3;fillColor=#C92D39;" edge="1" parent="1" target="2FagUGivekg9gJh4EhXs-66">
          <mxGeometry relative="1" as="geometry">
            <mxPoint x="746" y="-474" as="sourcePoint" />
          </mxGeometry>
        </mxCell>
        <UserObject label="FRETISTA AGUARDA CORRIDA" lucidchartObjectId="5~wK7thumvDX" id="2FagUGivekg9gJh4EhXs-66">
          <mxCell style="html=1;whiteSpace=wrap;;whiteSpace=wrap;fontSize=7;fontColor=#333333;fontStyle=1;spacing=7;strokeColor=#5e5e5e;strokeOpacity=100;fillOpacity=72;rounded=1;absoluteArcSize=1;arcSize=7.199999999999999;fillColor=#C92D39;strokeWidth=2;align=center;" vertex="1" zOrder="64" parent="1">
            <mxGeometry x="786" y="-504" width="110" height="60" as="geometry" />
          </mxCell>
        </UserObject>
        <mxCell id="2FagUGivekg9gJh4EhXs-67" style="edgeStyle=orthogonalEdgeStyle;rounded=0;orthogonalLoop=1;jettySize=auto;html=1;exitX=1;exitY=0.5;exitDx=0;exitDy=0;entryX=0;entryY=0.5;entryDx=0;entryDy=0;strokeWidth=1;fontSize=3;fillColor=#C92D39;" edge="1" parent="1" source="2FagUGivekg9gJh4EhXs-68" target="2FagUGivekg9gJh4EhXs-70">
          <mxGeometry relative="1" as="geometry" />
        </mxCell>
        <UserObject label="LOCAL DE PARTIDA" lucidchartObjectId="d~wKO_Ew.pH2" id="2FagUGivekg9gJh4EhXs-68">
          <mxCell style="html=1;whiteSpace=wrap;;whiteSpace=wrap;fontSize=7;fontColor=#333333;fontStyle=1;spacing=7;strokeColor=#5e5e5e;strokeOpacity=100;fillOpacity=72;rounded=1;absoluteArcSize=1;arcSize=7.199999999999999;fillColor=#C92D39;strokeWidth=2;" vertex="1" zOrder="61" parent="1">
            <mxGeometry x="36" y="-54" width="110" height="60" as="geometry" />
          </mxCell>
        </UserObject>
        <mxCell id="2FagUGivekg9gJh4EhXs-69" style="edgeStyle=orthogonalEdgeStyle;rounded=0;orthogonalLoop=1;jettySize=auto;html=1;exitX=1;exitY=0.5;exitDx=0;exitDy=0;entryX=0;entryY=0.5;entryDx=0;entryDy=0;strokeWidth=1;fontSize=3;fillColor=#C92D39;" edge="1" parent="1" source="2FagUGivekg9gJh4EhXs-70" target="2FagUGivekg9gJh4EhXs-72">
          <mxGeometry relative="1" as="geometry" />
        </mxCell>
        <UserObject label="LOCAL DE DESTINO" lucidchartObjectId="5~wK7thumvDX" id="2FagUGivekg9gJh4EhXs-70">
          <mxCell style="html=1;whiteSpace=wrap;;whiteSpace=wrap;fontSize=7;fontColor=#333333;fontStyle=1;spacing=7;strokeColor=#5e5e5e;strokeOpacity=100;fillOpacity=72;rounded=1;absoluteArcSize=1;arcSize=7.199999999999999;fillColor=#C92D39;strokeWidth=2;" vertex="1" zOrder="64" parent="1">
            <mxGeometry x="186" y="-54" width="110" height="60" as="geometry" />
          </mxCell>
        </UserObject>
        <mxCell id="2FagUGivekg9gJh4EhXs-71" style="edgeStyle=orthogonalEdgeStyle;rounded=0;orthogonalLoop=1;jettySize=auto;html=1;exitX=1;exitY=0.5;exitDx=0;exitDy=0;entryX=0;entryY=0.5;entryDx=0;entryDy=0;strokeWidth=1;fontSize=3;fillColor=#C92D39;" edge="1" parent="1" source="2FagUGivekg9gJh4EhXs-72" target="2FagUGivekg9gJh4EhXs-73">
          <mxGeometry relative="1" as="geometry" />
        </mxCell>
        <UserObject label="PREÇO BASE" lucidchartObjectId="d~wKO_Ew.pH2" id="2FagUGivekg9gJh4EhXs-72">
          <mxCell style="html=1;whiteSpace=wrap;;whiteSpace=wrap;fontSize=7;fontColor=#333333;fontStyle=1;spacing=7;strokeColor=#5e5e5e;strokeOpacity=100;fillOpacity=72;rounded=1;absoluteArcSize=1;arcSize=7.199999999999999;fillColor=#99FF99;strokeWidth=2;" vertex="1" zOrder="61" parent="1">
            <mxGeometry x="336" y="-54" width="110" height="60" as="geometry" />
          </mxCell>
        </UserObject>
        <UserObject label="CONFIRMAR FRETE" lucidchartObjectId="5~wK7thumvDX" id="2FagUGivekg9gJh4EhXs-73">
          <mxCell style="html=1;whiteSpace=wrap;;whiteSpace=wrap;fontSize=7;fontColor=#333333;fontStyle=1;spacing=7;strokeColor=#5e5e5e;strokeOpacity=100;fillOpacity=72;rounded=1;absoluteArcSize=1;arcSize=7.199999999999999;fillColor=#99FF99;strokeWidth=2;align=center;" vertex="1" zOrder="64" parent="1">
            <mxGeometry x="486" y="-54" width="110" height="60" as="geometry" />
          </mxCell>
        </UserObject>
        <mxCell id="2FagUGivekg9gJh4EhXs-74" style="edgeStyle=orthogonalEdgeStyle;rounded=0;orthogonalLoop=1;jettySize=auto;html=1;exitX=1;exitY=0.5;exitDx=0;exitDy=0;entryX=0;entryY=0.5;entryDx=0;entryDy=0;strokeWidth=1;fontSize=3;fillColor=#C92D39;" edge="1" parent="1" target="2FagUGivekg9gJh4EhXs-75">
          <mxGeometry relative="1" as="geometry">
            <mxPoint x="596" y="-24" as="sourcePoint" />
          </mxGeometry>
        </mxCell>
        <UserObject label="PEDIR FRETE" lucidchartObjectId="5~wK7thumvDX" id="2FagUGivekg9gJh4EhXs-75">
          <mxCell style="html=1;whiteSpace=wrap;;whiteSpace=wrap;fontSize=7;fontColor=#333333;fontStyle=1;spacing=7;strokeColor=#5e5e5e;strokeOpacity=100;fillOpacity=72;rounded=1;absoluteArcSize=1;arcSize=7.199999999999999;fillColor=#C92D39;strokeWidth=2;align=center;" vertex="1" zOrder="64" parent="1">
            <mxGeometry x="636" y="-54" width="110" height="60" as="geometry" />
          </mxCell>
        </UserObject>
        <mxCell id="2FagUGivekg9gJh4EhXs-76" style="edgeStyle=orthogonalEdgeStyle;rounded=0;orthogonalLoop=1;jettySize=auto;html=1;exitX=1;exitY=0.5;exitDx=0;exitDy=0;entryX=0;entryY=0.5;entryDx=0;entryDy=0;strokeWidth=1;fontSize=3;fillColor=#C92D39;" edge="1" parent="1" target="2FagUGivekg9gJh4EhXs-77">
          <mxGeometry relative="1" as="geometry">
            <mxPoint x="746.0000000000002" y="-24" as="sourcePoint" />
          </mxGeometry>
        </mxCell>
        <UserObject label="" lucidchartObjectId="5~wK7thumvDX" id="2FagUGivekg9gJh4EhXs-77">
          <mxCell style="html=1;whiteSpace=wrap;;whiteSpace=wrap;fontSize=7;fontColor=#333333;fontStyle=1;spacing=7;strokeColor=#5e5e5e;strokeOpacity=100;fillOpacity=72;rounded=1;absoluteArcSize=1;arcSize=7.199999999999999;fillColor=#C92D39;strokeWidth=2;align=center;" vertex="1" zOrder="64" parent="1">
            <mxGeometry x="786" y="-54" width="110" height="60" as="geometry" />
          </mxCell>
        </UserObject>
      </root>
    </mxGraphModel>
  </diagram>
</mxfile>
